<?xml version="1.0" standalone="no"?>
<!DOCTYPE svg PUBLIC "-//W3C//DTD SVG 20010904//EN"
 "http://www.w3.org/TR/2001/REC-SVG-20010904/DTD/svg10.dtd">
<svg version="1.0" xmlns="http://www.w3.org/2000/svg"
 width="256.000000pt" height="256.000000pt" viewBox="0 0 256.000000 256.000000"
 preserveAspectRatio="xMidYMid meet">

<g transform="translate(0.000000,256.000000) scale(0.100000,-0.100000)"
fill="#000000" stroke="none">
<path d="M1449 2418 c5 -13 102 -250 216 -528 115 -278 213 -517 219 -532 l10
-28 315 0 314 0 -49 53 c-74 79 -1026 1057 -1030 1057 -2 0 0 -10 5 -22z"/>
<path d="M1020 2343 c-40 -43 -148 -154 -239 -248 -297 -304 -544 -558 -644
-663 l-98 -102 316 0 c208 0 314 3 310 10 -3 6 -2 10 2 10 9 0 70 152 64 159
-1 2 1 7 6 10 11 7 66 139 66 159 0 6 3 12 7 12 5 0 40 85 46 110 0 3 11 28
23 55 13 28 24 55 26 60 1 6 9 26 18 45 46 105 95 230 90 230 -3 0 -1 6 5 13
9 11 92 203 92 213 0 15 -27 -6 -90 -73z"/>
<path d="M1881 1283 c-8 -17 -434 -1053 -453 -1103 -10 -29 -10 -29 507 505
203 209 421 433 484 498 l116 117 -322 0 c-297 0 -323 -1 -332 -17z"/>
<path d="M347 973 c170 -175 417 -429 549 -565 131 -135 240 -245 242 -244 1
2 -6 23 -17 47 -10 24 -114 277 -231 562 l-213 517 -319 0 -320 0 309 -317z"/>
</g>
</svg>
